<svg width="127" height="125" viewBox="0 0 127 125" fill="none" xmlns="http://www.w3.org/2000/svg">
<path d="M62.7545 26.6875C63.6014 26.6585 64.4483 26.6295 65.3209 26.5996C70.8712 26.5435 74.183 27.1684 78.5045 31C81.2037 34.7933 80.7582 39.0248 80.6998 43.4844C80.697 44.3 80.6941 45.1156 80.6912 45.9559C80.6801 48.5541 80.655 51.1519 80.6295 53.75C80.6195 55.5143 80.6103 57.2786 80.6021 59.043C80.5801 63.3621 80.5456 67.681 80.5045 72C79.4135 72.3711 79.4135 72.3711 78.3004 72.7498C67.1527 76.6507 58.9581 81.6868 52.8756 92.1016C50.7555 96.5832 49.4889 101.153 48.5045 106C49.5061 105.325 50.5077 104.649 51.5396 103.953C52.882 103.052 54.2245 102.151 55.567 101.25C56.2238 100.807 56.8805 100.363 57.5572 99.9062C61.7776 97.0788 69.0045 93.5 69.0045 93.5L79.5045 88L71.0045 95C71.0045 95 58.3348 104.717 52.5045 110C58.5903 113.649 66.1819 112.639 72.8951 111.348C82.8612 108.596 90.5027 103.569 97.5045 96C98.5967 94.949 99.6892 93.8983 100.782 92.8477C104.464 89.1703 107.441 85.2204 110.379 80.9375C111.144 79.8413 111.144 79.8413 111.924 78.7229C115.696 73.2758 119.325 67.7405 122.826 62.115C123.695 60.728 124.596 59.3614 125.505 58L126.505 56.5L126.504 58C126.58 62.0893 126.633 66.1783 126.669 70.2681C126.684 71.6549 126.705 73.0416 126.731 74.4282C126.959 86.8104 125.835 97.3123 117.504 107C101.979 122.13 83.3307 124.481 62.6217 124.469C61.0671 124.476 59.5125 124.484 57.9579 124.492C54.736 124.505 51.5144 124.507 48.2926 124.501C44.1746 124.495 40.0578 124.526 35.94 124.566C32.7452 124.592 29.5506 124.595 26.3557 124.591C24.8367 124.593 23.3176 124.602 21.7987 124.62C8.53559 124.76 8.53559 124.76 4.65732 121.65C1.46452 117.72 0.254033 115.712 0.213959 110.69C0.201199 109.605 0.188439 108.52 0.175293 107.403C0.173067 106.231 0.170842 105.059 0.168549 103.852C0.161892 102.647 0.155235 101.442 0.148376 100.201C0.138243 97.6506 0.13356 95.1002 0.133881 92.5498C0.129511 88.6473 0.093206 84.746 0.0552673 80.8437C0.0493987 78.3672 0.0454296 75.8906 0.0435486 73.4141C0.0291776 72.2462 0.0148065 71.0784 0 69.8751C0.0457532 61.7623 0.0457532 61.7623 2.42734 57.8047C7.21914 53.6414 11.212 53.635 17.3795 53.625C18.1697 53.6005 18.9599 53.576 19.774 53.5508C25.1551 53.5239 28.3101 54.3315 32.5045 58C35.8154 62.273 35.9037 66.1624 35.8404 71.3711C35.8529 73.0137 35.866 74.6563 35.8795 76.2988C35.8834 78.8707 35.8795 81.4421 35.8648 84.0139C35.8562 86.5086 35.878 89.0016 35.9029 91.4961C35.8896 92.2588 35.8762 93.0214 35.8625 93.8072C35.9167 97.7488 36.3115 100.264 38.7921 103.406C41.1167 105.629 42.6669 106.701 45.5045 108C45.4912 107.101 45.4778 106.202 45.4641 105.276C45.3437 96.7868 45.2524 88.2982 45.1936 79.8086C45.1624 75.4444 45.12 71.0809 45.0518 66.717C44.9865 62.5024 44.9507 58.2885 44.9352 54.0734C44.9242 52.4686 44.9026 50.8639 44.8701 49.2594C44.5951 35.1087 44.5951 35.1087 48.4161 30.5217C53.3433 26.4986 56.6002 26.7565 62.7545 26.6875Z" fill="#043DDF"/>
<path d="M108.155 0.0492988C108.858 0.0330359 109.561 0.0167729 110.286 1.71752e-05C116.285 -0.00561674 122.955 1.37399 124.608 5.34461C126.497 7.93436 126.506 13.763 126.497 19.0365C126.505 20.0951 126.488 21.4784 126.497 22.569C126.508 24.8027 126.506 26.8958 126.497 29.1294C126.49 32.5504 126.446 35.8017 126.497 39.2223C126.501 41.3939 126.499 43.1063 126.497 45.278C126.515 46.301 126.478 48.2611 126.497 49.3151C126.461 52.0204 126.505 56.5 126.505 56.5L122.005 59.5L117.005 62L111.005 64.5C111.005 64.5 107.505 66 105.245 66.473C103.758 67.0624 103.221 66.881 101.704 67.4823C97.8398 68.5252 95.0788 69.0499 91.078 68.9963C90.9605 61.2054 90.8707 53.4146 90.8158 45.623C90.7895 42.0046 90.7537 38.3868 90.6963 34.7687C90.6411 31.2741 90.611 27.78 90.5979 24.285C90.5841 22.3091 90.5446 20.3335 90.5047 18.358C90.5016 8.33294 90.5015 8.33295 93.5236 4.63175C98.3672 0.465735 101.817 0.0203026 108.155 0.0492988Z" fill="#0346EF"/>
</svg>
